<svg viewBox="0 0 900 460" xmlns="http://www.w3.org/2000/svg" font-family="Inter, sans-serif">
  <defs>
    <marker id="dot" markerWidth="6" markerHeight="6" refX="3" refY="3">
      <circle cx="3" cy="3" r="2.5" fill="#5B6B6B" />
    </marker>
  </defs>

  <!-- Drive-time arcs (concentric rings around the hub) -->
  <circle cx="400" cy="230" r="80"  fill="none" stroke="#D4D2CC" stroke-width="1" stroke-dasharray="3 4" />
  <circle cx="400" cy="230" r="150" fill="none" stroke="#D4D2CC" stroke-width="1" stroke-dasharray="3 4" />
  <circle cx="400" cy="230" r="210" fill="none" stroke="#D4D2CC" stroke-width="1" stroke-dasharray="3 4" />

  <!-- Spoke connector lines -->
  <line x1="400" y1="230" x2="610" y2="120" stroke="#C24914" stroke-width="2" />
  <line x1="400" y1="230" x2="150" y2="100" stroke="#5B6B6B" stroke-width="1.4" stroke-dasharray="2 4" />
  <line x1="400" y1="230" x2="640" y2="320" stroke="#5B6B6B" stroke-width="1.4" stroke-dasharray="2 4" />
  <line x1="400" y1="230" x2="190" y2="370" stroke="#5B6B6B" stroke-width="1.4" stroke-dasharray="2 4" />
  <line x1="400" y1="230" x2="260" y2="60"  stroke="#5B6B6B" stroke-width="1.4" stroke-dasharray="2 4" />

  <!-- Reallocation arrow callout along the highlighted spoke -->
  <text x="478" y="183" font-size="12" fill="#C24914" font-weight="600" text-anchor="middle" transform="rotate(-28 478 183)">
    reallocated visits
  </text>

  <!-- Hub node -->
  <circle cx="400" cy="230" r="22" fill="#1A1D1F" />
  <text x="400" y="235" font-size="11" fill="#EDEFEF" text-anchor="middle" font-weight="600">HUB</text>
  <text x="400" y="266" font-size="13" fill="#1A1D1F" text-anchor="middle" font-weight="600">Lebanon, NH</text>
  <text x="400" y="282" font-size="11" fill="#5B6B6B" text-anchor="middle">main hospital</text>

  <!-- Highlighted spoke: Manchester -->
  <circle cx="610" cy="120" r="14" fill="#C24914" />
  <text x="632" y="100" font-size="13" fill="#1A1D1F" font-weight="600">Manchester, NH</text>
  <text x="632" y="118" font-size="11" fill="#C24914" font-weight="600">satellite — receiving reallocation</text>

  <!-- Other spokes -->
  <circle cx="150" cy="100" r="9" fill="#5B6B6B" />
  <text x="150" y="84" font-size="12" fill="#5B6B6B" text-anchor="middle">Keene, NH</text>

  <circle cx="640" cy="320" r="9" fill="#5B6B6B" />
  <text x="640" y="340" font-size="12" fill="#5B6B6B" text-anchor="middle">Nashua, NH</text>

  <circle cx="190" cy="370" r="9" fill="#5B6B6B" />
  <text x="190" y="392" font-size="12" fill="#5B6B6B" text-anchor="middle">New London, NH</text>

  <circle cx="260" cy="60" r="9" fill="#5B6B6B" />
  <text x="260" y="44" font-size="12" fill="#5B6B6B" text-anchor="middle">St. Johnsbury, VT</text>

  <!-- Legend -->
  <g transform="translate(20, 410)">
    <circle cx="6" cy="0" r="6" fill="#1A1D1F" />
    <text x="18" y="4" font-size="11" fill="#1A1D1F">Hub hospital</text>

    <circle cx="140" cy="0" r="6" fill="#C24914" />
    <text x="152" y="4" font-size="11" fill="#1A1D1F">Satellite receiving reallocation</text>

    <circle cx="360" cy="0" r="6" fill="#5B6B6B" />
    <text x="372" y="4" font-size="11" fill="#1A1D1F">Other satellite clinics</text>

    <line x1="555" y1="0" x2="585" y2="0" stroke="#D4D2CC" stroke-width="1" stroke-dasharray="3 4" />
    <text x="592" y="4" font-size="11" fill="#1A1D1F">Drive-time rings</text>
  </g>
</svg>
